PathFileType	4	(X/Y/Z)	C:\Users\Basilio\Documents\Thesis Gigler\squatting_fais\c3dfiles\039\SJ_pre2\markers_experimental.trc
DataRate	CameraRate	NumFrames	NumMarkers	Units	OrigDataRate	OrigDataStartFrame	OrigNumFrames
200.000000	200.000000	4	61	mm	200.000000	866	1732
Frame#	Time	FHD			LBHD			RBHD			C7			T10			CLAV			LSHO			LUUPA			LMUPA			LDUPA			LLEP			LMEP			LRAD			LUL			LRFIN			RSHO			RUPA1			RMUPA			RDUPA			RLEP			RMEP			RRAD			RUL			RUFIN			LASI			RASI			USACR			LSACR			RSACR			LTHI1			LTHI2			LTHI3			LTHI4			LLFC			LMFC			LTIB1			LTIB2			LTIB3			LTIB4			LLMAL			LMMAL			LHEE			LMT1			LMT2			LMT5			RTHI			RTHI2			RTHI3			RTHI4			RLFC			RMFC			RTIB1			RTIB2			RTIB3			RTIB4			RLMAL			RMMAL			RHEE			RMT1			RMT2			RMT5			
		X1	Y1	Z1	X2	Y2	Z2	X3	Y3	Z3	X4	Y4	Z4	X5	Y5	Z5	X6	Y6	Z6	X7	Y7	Z7	X8	Y8	Z8	X9	Y9	Z9	X10	Y10	Z10	X11	Y11	Z11	X12	Y12	Z12	X13	Y13	Z13	X14	Y14	Z14	X15	Y15	Z15	X16	Y16	Z16	X17	Y17	Z17	X18	Y18	Z18	X19	Y19	Z19	X20	Y20	Z20	X21	Y21	Z21	X22	Y22	Z22	X23	Y23	Z23	X24	Y24	Z24	X25	Y25	Z25	X26	Y26	Z26	X27	Y27	Z27	X28	Y28	Z28	X29	Y29	Z29	X30	Y30	Z30	X31	Y31	Z31	X32	Y32	Z32	X33	Y33	Z33	X34	Y34	Z34	X35	Y35	Z35	X36	Y36	Z36	X37	Y37	Z37	X38	Y38	Z38	X39	Y39	Z39	X40	Y40	Z40	X41	Y41	Z41	X42	Y42	Z42	X43	Y43	Z43	X44	Y44	Z44	X45	Y45	Z45	X46	Y46	Z46	X47	Y47	Z47	X48	Y48	Z48	X49	Y49	Z49	X50	Y50	Z50	X51	Y51	Z51	X52	Y52	Z52	X53	Y53	Z53	X54	Y54	Z54	X55	Y55	Z55	X56	Y56	Z56	X57	Y57	Z57	X58	Y58	Z58	X59	Y59	Z59	X60	Y60	Z60	X61	Y61	Z61	

867	4.33	157.7433624267578	1102.639404296875	-817.6632080078127	4.790747642517091	1098.202514648438	-946.6420898437502	24.89127922058106	1094.2451171875	-806.195739746094	-56.82867813110353	1037.1513671875	-890.7917480468752	-336.6845397949219	925.9783325195315	-901.9053955078127	-33.09086227416993	876.5787353515627	-892.9536132812502	3.903316259384156	940.2910156250002	-1073.634765625	-121.8396759033203	938.1734619140627	-1261.020385742188	-137.2974243164063	890.5989990234377	-1261.736694335938	-165.5846557617188	911.4770507812502	-1309.476440429688	-223.3220825195313	879.5588989257815	-1341.942749023438	-271.0489196777344	953.0512695312502	-1320.183349609375	-456.0527954101564	820.5260009765627	-1168.63916015625	-442.2537231445314	754.9312744140626	-1203.6103515625	-429.297576904297	804.8344726562502	-1109.236206054688	-11.38088607788086	924.966491699219	-706.6428833007814	-150.783447265625	980.8488769531252	-553.6484985351564	-169.4966888427735	936.823181152344	-537.8126831054689	-200.4708557128907	976.708190917969	-503.7617187500001	-258.5864868164063	946.078796386719	-470.2871704101564	-301.6638183593751	1015.900573730469	-510.5688476562501	-436.3851623535157	854.5091552734377	-698.2671508789064	-453.4709777832032	803.1072387695315	-644.5368041992189	-401.5992126464845	807.4678955078127	-743.8887939453126	-395.8071899414064	736.5820312500001	-1036.843383789063	nan	nan	nan	-489.5748596191407	885.7893676757815	-902.6505126953127	-519.1542358398439	874.8083496093752	-932.4893188476565	-524.5487670898439	867.9468383789065	-875.9285888671877	-355.9138793945313	608.8451538085939	-1132.15869140625	-272.4974670410157	588.9089965820314	-1141.7138671875	-240.9572448730469	623.8202514648439	-1132.546630859375	-246.5705261230469	533.5627441406251	-1131.886474609375	-161.2501831054688	474.6750488281251	-1123.072631835938	-123.7493286132813	457.1670532226564	-1020.078002929688	-126.2534713745117	334.9053344726563	-1109.194946289063	-204.6158447265626	320.4692077636719	-1148.33935546875	-169.6377105712891	304.1410827636719	-1129.6376953125	-196.7089538574219	228.9617004394532	-1090.190673828125	-321.6068420410157	97.86917114257815	-1117.992797851563	-297.6795043945313	89.04282379150392	-1033.1376953125	-395.8291015625001	42.88583374023438	-1076.417846679688	-161.7824096679688	53.37949371337892	-1093.998413085938	-172.7332611083985	55.17062759399415	-1135.667236328125	-224.4234161376954	33.25564193725587	-1181.241821289063	-359.4506835937501	623.9282836914064	-707.6057739257814	-293.0720825195313	626.7327880859376	-698.2865600585939	-274.8424987792969	653.1795654296876	-710.1018066406251	-243.8141021728516	559.9883422851564	-684.6715698242189	-170.58837890625	464.209930419922	-693.0023803710939	-131.9735107421875	462.686248779297	-798.853698730469	-177.1106414794922	271.6961364746094	-705.4560546875001	-276.8518981933594	231.9348144531251	-695.7198486328126	-234.049545288086	211.8673706054688	-697.9776000976564	-230.4649658203126	159.0525207519532	-725.8123168945314	-320.2603149414063	90.99167633056642	-703.7409667968751	-287.2384338378907	95.01287841796876	-788.7381591796877	-390.2942504882814	40.83655548095704	-751.7932128906251	-157.0389556884766	49.90665435791017	-731.4858398437501	-166.9806671142578	57.51496887207033	-687.0104980468751	-223.3173370361329	32.79629516601563	-638.6583251953126	
868	4.335	157.68896484375	1102.48828125	-817.5067138671877	4.649658203125001	1098.147705078125	-946.4070434570315	24.80899620056153	1094.10205078125	-806.0770263671877	-56.924861907959	1037.0869140625	-890.6707763671877	-336.8145446777344	925.952331542969	-901.895935058594	-33.20326232910157	876.443542480469	-892.8665161132815	3.847200393676759	940.2731933593752	-1073.507080078125	-121.6672897338867	938.2274169921877	-1261.093872070313	-136.2074432373047	890.6041259765627	-1262.558837890625	-165.70166015625	911.7200317382815	-1309.38623046875	-223.4204711914063	879.5511474609377	-1341.80126953125	-271.0980224609376	953.1783447265627	-1320.063598632813	-456.2041320800782	820.5427246093752	-1168.640747070313	-442.2816162109376	755.0038452148439	-1203.595703125	-429.123260498047	804.7561645507815	-1108.996215820313	-11.51218891143799	924.8463134765627	-706.4886474609376	-150.9117584228516	980.6907348632815	-553.5183715820314	-169.7877960205078	936.6080322265627	-537.6416625976564	-200.6733398437501	976.5029907226565	-503.6343383789064	-258.7041320800782	945.9107055664065	-470.2296752929689	-301.8742980957032	1015.732177734375	-510.3480834960939	-436.6567687988282	854.4570312500002	-698.2592163085939	-453.5989990234376	802.9516601562502	-644.5448608398439	-401.6763916015626	807.300231933594	-743.8191528320314	-397.1571350097657	736.3649291992189	-1037.678344726563	nan	nan	nan	-489.6827087402345	885.7059326171877	-902.616149902344	-519.7296142578126	874.733337402344	-932.6461181640627	-524.6436157226564	867.8901977539065	-875.9132080078127	-355.9216613769532	608.8115844726564	-1132.238525390625	-272.6113891601563	588.8488769531251	-1141.794921875	-241.0963592529297	623.9208374023439	-1132.689819335938	-246.6759643554688	533.5746459960939	-1132.004150390625	-161.3050537109375	474.671600341797	-1123.24072265625	-123.669548034668	457.2106933593751	-1020.153991699219	-126.2729568481446	334.9066467285157	-1109.333129882813	-204.6236724853516	320.4098510742188	-1148.446655273438	-169.6253967285157	304.0929870605469	-1129.8876953125	-196.7265319824219	229.0101165771485	-1090.323120117188	-321.5433959960938	97.84658813476565	-1117.987548828125	-297.6748657226563	89.05821990966798	-1033.135375976563	-395.8130493164064	42.89613342285157	-1076.429931640625	-161.8028411865235	53.35886764526369	-1094.035034179688	-172.7157287597657	55.22828292846681	-1135.758178710938	-224.4056701660157	33.21047592163087	-1181.249633789063	-359.5168151855469	623.8837280273439	-707.5099487304689	-293.1885681152344	626.7351684570314	-698.2451782226564	-275.0125427246094	653.1978149414064	-710.0372314453126	-243.9644165039063	559.9556274414064	-684.5696411132814	-170.7203216552735	464.282928466797	-692.8119506835939	-132.0415649414063	462.7586669921876	-798.6975708007815	-177.1492309570313	271.7046813964844	-705.3614501953126	-276.9200744628907	231.9330596923829	-695.6430053710939	-234.0809936523438	211.8894195556641	-697.9357910156251	-230.4635772705079	159.0610656738282	-725.7937622070314	-320.2754821777344	91.00255584716798	-703.6947021484376	-287.2628784179688	95.03292846679689	-788.682556152344	-390.2910766601564	40.80485916137696	-751.7772827148439	-157.0447540283203	49.85176849365236	-731.4975585937501	-166.9995422363282	57.46105957031251	-687.0377807617189	-223.3099365234376	32.75934219360352	-638.6281127929689	
869	4.34	157.7173919677735	1102.3408203125	-817.3709716796877	4.521169185638429	1098.120361328125	-946.1946411132815	24.7926254272461	1094.02099609375	-805.8069458007815	-57.02251434326173	1037.0517578125	-890.4717407226565	-336.9608764648438	925.9248657226565	-901.859802246094	-33.30870437622071	876.3399047851565	-892.715026855469	3.728927373886109	940.222595214844	-1073.364501953125	-121.7488708496094	938.2663574218752	-1260.951293945313	-136.2762298583985	890.7086181640627	-1262.521484375	-165.6632995605469	911.7940063476565	-1309.297485351563	-223.5660247802735	879.6595458984377	-1341.644775390625	-271.2063903808594	953.216735839844	-1319.915649414063	-456.3672180175782	820.564147949219	-1168.57373046875	-442.3610229492189	755.0198364257814	-1203.568481445313	-429.3153381347657	804.6692504882815	-1109.078247070313	-11.67609596252442	924.691101074219	-706.4208984375001	-151.0011291503907	980.4473876953127	-553.4658813476564	-169.9967498779297	936.4049072265627	-537.5206909179689	-200.8703308105469	976.2093505859377	-503.5443420410157	-258.7764282226563	945.665710449219	-470.1582641601564	-302.0990295410157	1015.443969726563	-510.1427307128907	-436.7919006347657	854.3510742187502	-698.2054443359376	-453.7265930175782	802.9129028320315	-644.4763183593751	-401.7396545410157	807.1669921875002	-743.7195434570314	-396.8365783691407	736.8136596679689	-1037.724243164063	nan	nan	nan	-489.905487060547	885.7592773437502	-902.583435058594	-519.8824462890626	874.6849365234377	-932.6440429687502	-524.7465820312501	867.7955322265627	-875.7774658203127	-356.0520324707032	608.8254394531251	-1132.316040039063	-272.6933288574219	588.8707885742189	-1141.915649414063	-241.2039489746094	623.9389648437501	-1132.875854492188	-246.7697448730469	533.5010375976564	-1132.127075195313	-161.3733062744141	474.7202148437501	-1123.39697265625	-123.722282409668	457.1509704589845	-1020.278747558594	-126.2663879394532	334.8520507812501	-1109.462158203125	-204.7566375732422	320.4990844726563	-1148.585083007813	-169.5807189941407	304.1349792480469	-1130.0380859375	-196.7273406982422	229.045150756836	-1090.442016601563	-321.5871582031251	97.85343170166018	-1118.042846679688	-297.6319580078126	88.99415588378908	-1033.209716796875	-395.8365783691407	42.87797164916993	-1076.401611328125	-161.8412780761719	53.30930709838869	-1094.066040039063	-172.7241973876953	55.13249588012697	-1135.694702148438	-224.4300079345704	33.19828033447266	-1181.259765625	-359.6977539062501	623.8840332031251	-707.4517822265626	-293.2570190429688	626.6828613281251	-698.1953735351564	-275.1422119140626	653.1660156250001	-709.9638671875001	-244.0836029052735	559.9757080078126	-684.5011596679689	-170.8374328613282	464.3623046875001	-692.6812133789064	-132.0552825927735	462.8437500000001	-798.543395996094	-177.1807250976563	271.6898498535157	-705.2233886718751	-276.9751892089844	231.9227142333985	-695.5613403320314	-234.1349487304688	211.9250030517579	-697.9152221679689	-230.5538635253907	159.1376342773438	-725.7180175781251	-320.2785949707032	90.9788284301758	-703.6531372070314	-287.2188720703126	95.05542755126955	-788.6567993164065	-390.3286437988282	40.81076431274415	-751.7968139648439	-157.111557006836	49.96774673461915	-731.4948120117189	-167.0140686035157	57.49139404296876	-687.0377807617189	-223.3169555664063	32.74323272705079	-638.6138305664064	
870	4.345	157.6710968017578	1102.257202148438	-817.2076416015627	4.513483047485352	1098.117919921875	-946.120056152344	24.72957420349122	1093.862060546875	-805.646179199219	-57.12987518310548	1036.988403320313	-890.3367919921877	-337.0741882324219	925.830017089844	-901.8361816406252	-33.42718887329102	876.2482910156252	-892.6338500976565	3.569551944732667	940.1956176757815	-1073.228759765625	-121.8495330810547	938.2667236328127	-1260.87890625	-136.355712890625	890.8369750976565	-1262.386840820313	-165.731185913086	911.8123168945315	-1309.182739257813	-223.6301574707032	879.7585449218752	-1341.560424804688	-271.2534484863282	953.3140869140627	-1319.746337890625	-456.3989868164064	820.5989990234377	-1168.517333984375	-442.498992919922	755.0307006835939	-1203.62060546875	-429.383026123047	804.6201171875002	-1109.066040039063	-11.82542896270752	924.6570434570315	-706.2270507812501	-151.0281066894532	980.1362915039065	-553.3801879882814	-170.1889190673828	936.2744750976565	-537.5064697265626	-200.9226684570313	975.8414306640627	-503.4051513671876	-258.8095397949219	945.4448242187502	-470.0515441894532	-302.2908935546876	1015.223815917969	-509.9453735351564	-436.9622192382814	854.2800903320315	-698.1683349609376	-453.8651428222657	802.7596435546877	-644.4833374023439	-401.8190307617189	807.026306152344	-743.6292724609376	-396.8556518554689	736.6756591796876	-1037.619873046875	nan	nan	nan	-489.960662841797	885.6746215820315	-902.5847167968752	-519.9102783203126	874.6082763671877	-932.5311279296877	-524.8721313476564	867.708435058594	-875.8345947265627	-356.1357116699219	608.8110961914064	-1132.316162109375	-272.8144836425782	588.8385009765626	-1142.043579101563	-241.3476104736329	623.8519287109376	-1133.020629882813	-246.8565063476563	533.4995727539064	-1132.199096679688	-161.4601135253907	474.7039489746095	-1123.568481445313	-123.6820220947266	457.1870117187501	-1020.356811523438	-126.2515106201172	334.8622131347657	-1109.518432617188	-204.8285369873047	320.4543457031251	-1148.691772460938	-169.6679382324219	304.0791015625001	-1130.164672851563	-196.7803649902344	229.0222930908204	-1090.540893554688	-321.6259155273438	97.86225891113284	-1118.075927734375	-297.6061706542969	89.05517578125001	-1033.234375	-395.8357543945314	42.88400268554688	-1076.412841796875	-161.8559875488282	53.30350875854494	-1094.050903320313	-172.6624145507813	55.14618301391603	-1135.815063476563	-224.4297790527344	33.17527389526368	-1181.28564453125	-359.8375854492188	623.8842773437501	-707.3804931640626	-293.3354187011719	626.6130981445314	-698.1519775390626	-275.2578430175782	653.2382202148439	-709.8411865234376	-244.1665802001954	559.9232177734376	-684.4010009765626	-170.8789672851563	464.3482360839845	-692.4892578125001	-132.3045501708985	462.7588195800782	-798.2935791015627	-177.3117370605469	271.8383178710938	-705.0947265625001	-277.0182189941407	231.9287414550782	-695.4931030273439	-234.1363677978516	211.8979187011719	-697.8253173828126	-230.5989074707032	159.1769561767578	-725.6423339843751	-320.2955627441407	90.98552703857423	-703.6518554687501	-287.2184753417969	95.04412841796876	-788.6546020507815	-390.315887451172	40.78543853759766	-751.7879028320314	-157.1093292236328	49.96825027465822	-731.4967041015626	-166.9749145507813	57.4718589782715	-687.0114746093751	-223.2866210937501	32.73823547363282	-638.6085205078126	
